<?xml version="1.0" standalone="no"?>
<!DOCTYPE svg PUBLIC "-//W3C//DTD SVG 20010904//EN"
 "http://www.w3.org/TR/2001/REC-SVG-20010904/DTD/svg10.dtd">
<svg version="1.0" xmlns="http://www.w3.org/2000/svg"
 width="199.000000pt" height="136.000000pt" viewBox="0 0 199.000000 136.000000"
 preserveAspectRatio="xMidYMid meet">

<g transform="translate(0.000000,136.000000) scale(0.100000,-0.100000)"
fill="#000000" stroke="none">
<path d="M47 1158 c-16 -12 -17 -56 -15 -578 l3 -565 954 -3 c696 -1 957 1
967 9 12 9 14 112 14 570 0 645 14 579 -119 579 l-81 0 -2 -437 -3 -438 -50
-13 c-27 -7 -200 -45 -383 -85 l-333 -73 -374 82 c-206 46 -379 86 -385 89 -6
4 -10 162 -10 441 l0 434 -83 0 c-51 0 -90 -5 -100 -12z"/>
</g>
</svg>
